<svg width="586" height="586" viewBox="0 0 586 586" fill="none" xmlns="http://www.w3.org/2000/svg">
<rect width="586" height="586" fill="white"/>
<path d="M293 586C454.819 586 586 454.819 586 293C586 131.181 454.819 0 293 0C131.181 0 0 131.181 0 293C0 454.819 131.181 586 293 586Z" fill="#B1B8D0"/>
<path d="M292.973 282.899C330.037 282.899 360.083 252.853 360.083 215.788C360.083 178.724 330.037 148.677 292.973 148.677C255.908 148.677 225.862 178.724 225.862 215.788C225.862 252.853 255.908 282.899 292.973 282.899Z" fill="#125ABE"/>
<path d="M433.302 437.323H152.698C152.698 359.888 215.45 297.023 293 297.023C370.435 297.023 433.302 359.888 433.302 437.323Z" fill="#125ABE"/>
</svg>
